<?xml version="1.0" encoding="UTF-8" standalone="no"?>
<!-- Created with Inkscape (http://www.inkscape.org/) -->

<svg
   xmlns:dc="http://purl.org/dc/elements/1.1/"
   xmlns:cc="http://creativecommons.org/ns#"
   xmlns:rdf="http://www.w3.org/1999/02/22-rdf-syntax-ns#"
   xmlns:svg="http://www.w3.org/2000/svg"
   xmlns="http://www.w3.org/2000/svg"
   xmlns:sodipodi="http://sodipodi.sourceforge.net/DTD/sodipodi-0.dtd"
   xmlns:inkscape="http://www.inkscape.org/namespaces/inkscape"
   width="1058.3336mm"
   height="140.17967mm"
   viewBox="0 0 3750.001 496.69962"
   id="svg2"
   version="1.1"
   inkscape:version="0.91 r13725"
   sodipodi:docname="second.svg">
  <defs
     id="defs4" />
  <sodipodi:namedview
     id="base"
     pagecolor="#ffffff"
     bordercolor="#666666"
     borderopacity="1.0"
     inkscape:pageopacity="0.0"
     inkscape:pageshadow="2"
     inkscape:zoom="0.49497475"
     inkscape:cx="1772.2822"
     inkscape:cy="307.84779"
     inkscape:document-units="px"
     inkscape:current-layer="layer1"
     showgrid="false"
     showguides="false"
     fit-margin-top="0"
     fit-margin-left="0"
     fit-margin-right="0"
     fit-margin-bottom="0"
     inkscape:window-width="2560"
     inkscape:window-height="1365"
     inkscape:window-x="0"
     inkscape:window-y="242"
     inkscape:window-maximized="1" />
  <metadata
     id="metadata7">
    <rdf:RDF>
      <cc:Work
         rdf:about="">
        <dc:format>image/svg+xml</dc:format>
        <dc:type
           rdf:resource="http://purl.org/dc/dcmitype/StillImage" />
        <dc:title></dc:title>
      </cc:Work>
    </rdf:RDF>
  </metadata>
  <g
     inkscape:label="Layer 1"
     inkscape:groupmode="layer"
     id="layer1"
     transform="translate(1414.3704,-173.80088)">
    <path
       style="fill:#2e0e2b"
       d="m -1412.9181,666.85637 -1.4523,-3.18749 0,-170.37245 0,-170.37244 2.6065,-2.35886 c 1.4336,-1.29737 4.5446,-4.99911 6.9135,-8.22608 l 4.3069,-5.86723 6.457,-3.21765 c 3.5513,-1.76971 7.2971,-3.21765 8.3239,-3.21765 1.0268,0 5.717,-2.32625 10.4227,-5.16945 l 8.5557,-5.16945 9.234,1.57952 9.234,1.57954 3.2709,-0.82095 3.2709,-0.82093 4.0145,1.77557 c 2.208,0.97656 7.6707,3.44786 12.1395,5.49179 l 8.125,3.7162 4.7679,3.84642 4.768,3.84641 5.857,2.11678 c 3.2214,1.16421 8.1071,3.12296 10.8571,4.35276 2.75,1.2298 6.9861,3.04224 9.4135,4.02764 l 4.4135,1.79162 7.2654,0.90775 7.2653,0.90774 8.3094,3.7282 8.3095,3.7282 4.1343,-0.77559 4.1342,-0.77558 3.8744,4.1304 c 2.1309,2.27172 6.9485,7.92728 10.7058,12.56791 3.7572,4.64062 7.2643,8.4375 7.7934,8.4375 0.5292,0 3.2122,2.25 5.9622,5 l 5,5 3.119,0 3.119,0 1.5091,1.81839 c 0.83,1.0001 4.1333,3.32621 7.3406,5.16913 3.2073,1.84292 7.0381,4.44235 8.513,5.77652 l 2.6816,2.42576 4.642,-1.28171 4.642,-1.28172 3.9264,2.74932 c 2.1595,1.51212 5.552,4.0449 7.5389,5.62838 l 3.6125,2.87908 2.0125,-0.79673 c 1.1069,-0.4382 7.0304,-1.27711 13.1633,-1.86423 l 11.1509,-1.06752 3.7709,-2.78796 3.7709,-2.78795 15.6783,-1.52827 15.6783,-1.52829 1.2749,-2.17855 c 0.7013,-1.19821 2.4638,-3.65008 3.9167,-5.4486 1.4529,-1.79853 3.7837,-5.52005 5.1795,-8.27005 1.3958,-2.75 3.6342,-5.99151 4.9742,-7.20336 l 2.4365,-2.20335 7.8152,-3.06275 7.8152,-3.06277 10.1938,-1.3821 c 5.6066,-0.76016 12.3132,-1.93162 14.9036,-2.60325 l 4.7098,-1.22113 5.9569,-5.2906 5.957,-5.2906 9.9582,-5.69862 c 22.75352,-13.02063 28.49128,-16.10647 29.94818,-16.10647 1.3811,0 14.69617,6.11226 19.38514,8.89872 1.87349,1.11334 8.69533,4.36192 18.125,8.63119 l 5,2.26374 9.08628,0.56297 9.08628,0.56298 5.79202,3.6027 5.79202,3.6027 3.65385,4.53438 3.65386,4.53436 1.6608,4.84064 1.66079,4.84062 7.54491,0.85357 c 4.1497,0.46947 8.60557,1.42123 9.90193,2.11502 l 2.35702,1.26144 4.90513,-1.74766 4.90511,-1.74763 5.86663,-0.0549 5.86661,-0.0549 1.94589,-2.77814 c 1.07022,-1.52795 1.94587,-3.67271 1.94587,-4.76613 l 0,-1.98799 3.4375,-3.18315 c 1.89063,-1.75074 5.125,-4.03753 7.1875,-5.08173 2.0625,-1.04421 6.98744,-3.69844 10.9443,-5.89829 l 7.19431,-3.99971 8.38787,-10.55 8.38786,-10.55 6.22576,-3.10243 c 3.42418,-1.70633 7.06588,-3.10242 8.09269,-3.10242 1.02681,0 5.71701,-2.32625 10.42266,-5.16945 l 8.55574,-5.16945 9.23401,1.57953 9.23402,1.57953 3.2709,-0.82095 3.2709,-0.82093 4.01449,1.77557 c 2.20797,0.97656 7.67074,3.44786 12.13949,5.49179 l 8.125,3.7162 4.76795,3.84642 4.76795,3.84641 5.85705,2.11678 c 3.22137,1.16421 8.10705,3.12296 10.85705,4.35276 2.75,1.2298 6.98609,3.04224 9.41351,4.02764 l 4.41353,1.79163 7.26532,0.90775 7.26534,0.90773 8.30945,3.7282 8.30946,3.7282 4.13425,-0.77558 4.13424,-0.77559 3.87441,4.1304 c 2.13093,2.27172 6.94851,7.92729 10.70575,12.56791 3.75724,4.64063 7.2643,8.4375 7.79348,8.4375 0.52917,0 3.21215,2.25 5.96215,5 l 5,5 3.119,0 3.119,0 1.50912,1.81839 c 0.83001,1.0001 4.13326,3.32621 7.34055,5.16914 3.20729,1.84291 7.03815,4.44234 8.51303,5.77651 l 2.68157,2.42576 4.57959,-1.26448 4.57959,-1.26448 5.23882,3.71052 c 2.88136,2.04079 6.37868,4.51813 7.7718,5.50519 l 2.53297,1.79465 6.21703,-1.64495 c 7.83259,-2.07241 14.82618,-5.63368 22.3668,-11.38957 l 5.90145,-4.50468 8.3494,-1.06056 8.34939,-1.06056 9.70893,1.31732 9.70892,1.31732 2.87164,-2.69776 2.87164,-2.69776 1.83943,0 1.83944,0 12.26903,-12.15004 12.26902,-12.15005 9.98493,-0.0375 9.98491,-0.0375 -0.1653,-20.3125 -0.1653,-20.3125 1.14304,0 1.14303,0 0.82368,14.0625 c 0.45301,7.73438 1.15821,17.05976 1.5671,20.7231 l 0.74344,6.66059 2.65621,1.01785 2.65621,1.01785 2.62774,-2.41026 2.62774,-2.41027 5.49726,0.8109 c 3.0235,0.44599 11.40351,2.16544 18.62226,3.821 l 13.125,3.0101 3.38689,2.47333 3.38687,2.47331 3.20657,0 3.20655,0 1.26338,3.32298 c 1.6076,4.22828 7.83642,11.34487 12.9917,14.84335 l 3.99164,2.70878 6.08103,0.68543 6.08102,0.68541 2.36894,3.25203 2.36892,3.25202 2.00109,0 c 1.1006,0 4.28806,1.0889 7.08325,2.41978 6.06203,2.88632 17.47128,5.87245 26.95715,7.05546 3.78125,0.47157 7.4375,1.29116 8.125,1.82131 0.6875,0.53015 2.65625,1.15843 4.375,1.39618 l 3.125,0.43227 0.625,4.90583 0.625,4.90583 3.75,2.06354 3.75,2.06354 2.5,4.3585 c 1.375,2.39719 4.65625,6.96985 7.29168,10.1615 l 4.79167,5.803 8.6728,7.0073 8.6728,7.00731 2.78553,-0.85482 c 1.53203,-0.47015 6.29281,-2.48002 10.5795,-4.46638 l 7.79398,-3.61157 2.04138,-3.11555 2.04139,-3.11554 -1.58164,-1.90576 -1.58164,-1.90577 1.44965,-3.18165 1.44966,-3.18165 -0.78831,-1.27552 -0.78832,-1.27553 1.70993,-3.21034 1.70994,-3.21036 -1.5625,-0.52462 -1.5625,-0.52463 0,-1.82062 c 0,-1.00135 1.12081,-4.01761 2.4907,-6.70281 l 2.4907,-4.88218 -1.2407,-0.7668 c -0.68239,-0.42165 -1.2407,-1.5341 -1.2407,-2.47202 l 0,-1.70533 3.27593,-3.89321 3.27592,-3.89321 -1.92875,-2.1402 -1.92875,-2.14019 4.8533,-20 4.85331,-20 0.0495,-5.3125 0.0495,-5.3125 1.08896,0 1.08897,0 0.83268,6.27714 c 0.45799,3.45242 2.81369,13.9993 5.23489,23.4375 l 4.4022,17.16036 3.05115,5.91449 c 1.67814,3.25297 3.05115,6.52526 3.05115,7.27173 l 0,1.35726 -2.62537,-0.83327 -2.62538,-0.83326 3.18008,5.43652 3.18008,5.43653 -0.11875,4.0192 -0.11875,4.0192 1.61152,1.94175 1.6115,1.94175 -2.26798,2.50609 -2.26797,2.50609 1.47046,1.47046 1.47056,1.47046 0,2.46407 0,2.46408 1.99745,2.20716 1.99745,2.20715 -0.82122,1.32878 -0.82122,1.32876 -1.94702,0 -1.94702,0 0.65454,2.50295 0.65453,2.50294 -1.95135,1.09203 -1.95136,1.09204 3.31761,2.17378 c 1.82469,1.19558 3.31761,2.7372 3.31761,3.42581 l 0,1.25202 -2.8125,-0.70861 -2.8125,-0.70862 2.42641,1.81283 2.42642,1.81283 5.07358,0.0729 c 2.79048,0.0401 9.22422,0.29982 14.29734,0.57718 l 9.22375,0.50429 2.12463,1.92283 c 1.16862,1.05756 2.67337,1.92283 3.34412,1.92283 0.67063,0 3.88025,1.6875 7.13238,3.75 l 5.91325,3.75 4.1785,0 4.1785,0 1.46025,1.75946 1.46025,1.75947 12.92412,-0.41534 12.924126,-0.41535 3.041,3.34339 c 4.029625,4.43023 7.246375,9.71122 7.246375,11.89633 l 0,1.76593 1.823625,1.51351 1.82375,1.5135 11.61375,-1.5771 11.613874,-1.57711 1.4985,-1.13334 c 0.82425,-0.62333 2.161,-3.19771 2.970625,-5.72084 1.661625,-5.17855 4.54475,-8.96251 6.828876,-8.96251 l 1.535375,0 0.649875,2.48495 0.649875,2.48495 3.436875,1.30671 3.436875,1.30671 12.322,-2.75118 12.3221247,-2.75118 1.673875,-3.22797 c 0.92075,-1.7754 3.446125,-6.58748 5.61212497,-10.69353 2.16587503,-4.10604 3.93800003,-7.94082 3.93800003,-8.52172 l 0,-1.05622 -2.61725,0.83069 -2.61725003,0.83069 4.75525003,-8.93971 4.755375,-8.93972 -1.359,-2.11923 -1.359,-2.11924 2.357375,-4.6601 2.3573753,-4.6601 1.8635,-8.85912 1.863625,-8.85912 0,-5.79328 0,-5.79328 1.5005,1.50051 1.5005,1.5005 -0.256,8.437 -0.256,8.43699 1.835,6.81891 1.835,6.81891 2.5395,3.43484 2.5395,3.43484 -1.925875,1.07777 -1.925875,1.07777 1.386375,3.66849 c 0.7625,2.01766 2.8115,5.16256 4.553375,6.98866 l 3.167,3.32019 -0.806,2.53912 -0.805875,2.53913 1.622,2.74151 1.621875,2.7415 -1.5625,0.56585 -1.5625,0.56585 0.0275,1.45832 c 0.015,0.80209 1.127875,2.86459 2.47225,4.58334 1.344375,1.71875 2.456875,3.54688 2.47225,4.0625 l 0.0275,0.9375 -1.875,0 -1.875,0 0,1.05626 c 0,0.58095 1.13825,2.08642 2.5295,3.34547 l 2.529625,2.2892 -1.279625,1.27953 c -2.010625,2.01072 -1.531125,3.89292 1.94825,7.64725 l 3.22775,3.48278 -1.6325,1.00891 -1.6325,1.00893 2.77975,2.9589 c 1.528875,1.6274 2.77975,3.66367 2.77975,4.52507 l 0,1.56618 -2.5,-0.79348 -2.5,-0.79347 0,1.23833 c 0,0.68108 1.45625,2.96899 3.236125,5.08423 l 3.236125,3.84591 1.795125,0 1.795125,0 0.755247,-3.77601 c 0.41538,-2.0768 1.245,-4.07875 1.84375,-4.44878 l 1.0885,-0.67275 0,-6.21546 0,-6.21546 1.875,-0.7195 1.875,-0.71951 0,-1.59548 0,-1.59547 2.42137,-0.63322 2.42138,-0.63321 0.39112,-5.45007 0.39113,-5.45008 1.6065,2.8125 1.6065,2.8125 -1.34788,2.51855 -1.34787,2.51854 1.92887,0.7402 1.92888,0.74019 0,2.35152 0,2.35153 2.67475,-0.29777 2.67462,-0.29776 0.50613,1.41741 0.50612,1.41742 -1.93087,1.9308 c -2.57175,2.57177 -2.434,3.35937 0.58762,3.35937 l 2.51838,0 2.477,-4.0625 c 1.36225,-2.23437 2.479,-4.48437 2.48162,-5 l 0,-0.9375 -1.875,0 -1.875,0 0.0988,-2.8125 c 0.0537,-1.54687 0.76375,-6.46875 1.5765,-10.9375 l 1.47763,-8.125 2.28137,-3.38252 2.28125,-3.38254 -0.844,-1.36566 -0.84412,-1.36568 -1.79388,1.48883 -1.79387,1.48882 -0.79513,-0.79512 -0.79512,-0.79513 2.28362,-7.54242 c 1.256,-4.14834 2.2185,-8.51132 2.13888,-9.6955 -0.20675,-3.07558 2.15413,-11.53198 4.39825,-15.75372 l 1.914,-3.60062 -0.837,-11.08688 -0.837,-11.08686 1.1695,0 1.16938,0 2.14387,9.6875 c 1.17912,5.32813 2.923,11.20644 3.8755,13.06293 l 1.73162,3.37542 0,4.34133 0,4.34133 4.15501,5.44332 4.155002,5.44331 -0.48375,1.45121 -0.48375,1.4512 2.19675,3.35278 2.19687,3.35276 -2.32088,1.69706 -2.32087,1.69708 4.57775,4.31745 c 2.51787,2.37458 4.57787,4.93945 4.57787,5.69968 0,2.99488 13.979,15.03564 17.456,15.03564 l 1.294,0 0,-1.90594 0,-1.90593 -2.8125,-1.17633 c -4.36237,-1.82455 -6.28575,-3.90971 -10,-10.84066 l -3.4375,-6.41459 0,-3.90952 0,-3.90953 3.75,-0.75 3.75,-0.75 0,-1.64497 c 0,-0.90474 0.598,-2.01454 1.32876,-2.4662 l 1.32875,-0.82123 2.39524,2.1676 2.39513,2.1676 0.72475,-1.88855 c 0.3985,-1.0387 0.55087,-3.78714 0.3385,-6.10765 l -0.381,-4.2191 1.25,-0.625 1.25,-0.625 0.396,5 0.39613,5 1.13687,1.15796 1.13688,1.15797 2.52962,-2.2892 2.5295,-2.28921 0,1.27517 c 0,0.70133 -1.125,2.70537 -2.5,4.4534 -1.375,1.74802 -2.5,3.85282 -2.5,4.67731 l 0,1.49907 1.875,-0.75873 c 1.03125,-0.41731 2.71875,-1.10017 3.75,-1.51748 l 1.875,-0.75874 0,3.05811 0,3.05808 -3.125,1.42385 -3.125,1.42384 0,1.9018 0,1.9018 1.01113,0 c 0.556,0 2.10287,-0.82586 3.4375,-1.83525 l 2.42637,-1.83524 2.8125,-0.0398 2.8125,-0.0397 0,1.09695 c 0,0.60331 -0.84375,1.79719 -1.875,2.65305 -1.03125,0.85586 -1.875,2.28511 -1.875,3.17611 l 0,1.61999 -4.4665,2.76045 -4.4665,2.76045 1.25875,1.25876 1.25875,1.25877 5.39525,-3.30448 c 2.96738,-1.81746 6.93288,-4.52693 8.81225,-6.02105 l 3.41713,-2.71657 0.7845,0.78455 0.78462,0.78456 -3.22225,2.98619 -3.22212,2.98618 1.52062,1.56085 1.5205,1.56085 -4.28188,3.60887 c -2.355,1.98487 -6.15187,4.49626 -8.4375,5.58083 -4.07062,1.93163 -4.942,3.15169 -3.37212,4.7215 l 0.7835,0.78349 3.7375,-1.93276 3.7375,-1.93275 2.6015,0.68029 2.60138,0.6803 1.65775,-1.37581 1.65775,-1.37582 0.81625,0.81617 0.81612,0.81616 -3.25725,3.42446 -3.25725,3.42446 -0.81825,3.31254 -0.81825,3.31255 -6.14587,5.73048 -6.14588,5.73046 0,2.3016 0,2.30159 3.07163,2.88565 3.07162,2.88563 4.23675,-2.01045 4.23675,-2.01046 4.24488,1.21744 4.245,1.21745 4.01175,-0.7526 4.01162,-0.7526 2.03188,-3.101 2.03187,-3.101 -2.04087,-1.49229 -2.04075,-1.49229 1.24787,-4.96635 c 0.6865,-2.73148 1.81488,-7.21586 2.50763,-9.96525 l 1.25962,-4.99891 -1.18862,-1.18859 c -2.75263,-2.75263 0.0275,-9.96573 6.62387,-17.18907 1.89063,-2.07015 3.4375,-4.26693 3.4375,-4.88173 l 0,-1.1178 -2.42625,0 -2.42625,0 -0.77112,-1.24781 -0.77125,-1.2478 1.9475,-2.78032 1.94737,-2.78033 0,-2.69381 0,-2.69381 1.98275,-1.64554 1.98275,-1.64554 -0.73725,-3.68647 -0.73737,-3.68647 1.03575,-1.38355 c 0.56962,-0.76095 1.69662,-3.69881 2.5045,-6.52857 l 1.46887,-5.14503 0.04,-6.72997 0.04,-6.72998 1.82238,-2.40875 c 1.00225,-1.32481 2.06675,-2.16427 2.3655,-1.86548 0.29887,0.2988 0.66887,4.47648 0.82225,9.28375 l 0.279,8.74048 3.6615,5.3377 3.66137,5.3377 -0.55187,1.5373 -0.55175,1.5373 1.16775,2.2674 1.16787,2.2674 -1.27275,1.53363 -1.27287,1.53361 3.06112,5.38908 3.061,5.38907 0,2.9974 0,2.99741 -1.25,0 -1.25,0 0,1.74492 0,1.74492 5.9015,4.98133 5.9015,4.98131 -1.812,2.18332 -1.812,2.18333 4.0355,3.36897 c 2.2195,1.85293 4.0355,3.74988 4.0355,4.21544 l 0,0.84646 -3.125,0 -3.125,0 0,0.83908 c 0,0.46149 0.92138,1.85719 2.0475,3.10155 l 2.0475,2.26247 -1.60712,1.93647 -1.60713,1.93646 4.22325,5.89949 c 2.32275,3.24471 6.06213,7.74636 8.30963,10.00365 2.2475,2.2573 4.10662,4.78855 4.13137,5.625 0.025,0.83646 1.37613,3.1489 3.00325,5.13876 l 2.95838,3.61792 1.84112,-0.7065 1.84113,-0.70651 4.66062,4.39603 4.66062,4.39602 1.39863,-1.39864 1.39862,-1.39862 -0.29275,-4.03381 -0.29262,-4.03382 2.41837,-3.09282 2.41825,-3.09281 2.38163,2.15531 2.38162,2.15532 2.089,0 2.08913,0 0,-2.34375 0,-2.34375 4.0625,-0.94847 c 2.23437,-0.52166 4.56825,-0.84525 5.1865,-0.71909 0.61825,0.12618 1.88412,-0.0622 2.81312,-0.41875 l 1.689,-0.64815 -2.61837,-4.72652 c -1.44013,-2.59958 -3.12788,-5.26089 -3.7505,-5.91402 -0.62275,-0.65312 -1.13225,-1.6375 -1.13225,-2.1875 l 0,-1 3.597,0 3.59688,0 1.39225,-1.67751 1.39212,-1.67751 -0.82237,-0.82249 c -0.45288,-0.45238 -2.38363,-0.8225 -4.29088,-0.8225 l -3.468,0 -0.79412,-1.28492 -0.79413,-1.28492 2.897,-2.34585 2.897,-2.34584 -2.299,-2.54047 -2.29912,-2.54046 0.82125,-1.32878 0.82112,-1.32876 2.42625,0 2.42625,0 0,-1.25 0,-1.25 -4.375,0 -4.375,0 0,-1.875 0,-1.875 1.831,0 1.831,0 1.338,-2.5 1.338,-2.5 3.081,0 3.081,0 0,-1.25 0,-1.25 -4.47912,0 -4.47925,0 0.51337,-1.5625 0.51325,-1.5625 4.59088,-0.38796 4.59087,-0.38795 0,-1.71652 0,-1.71652 -3.4375,-0.47475 -3.4375,-0.47476 4.6875,-2.12505 4.6875,-2.12504 0,-1.1502 0,-1.1502 -3.4375,-0.39553 -3.4375,-0.39552 0.33313,-3.26733 0.33312,-3.26731 -1.89562,-1.57324 c -1.04263,-0.86527 -1.89563,-2.31247 -1.89563,-3.21598 l 0,-1.64274 3.9365,-0.3917 3.93638,-0.3917 1.33187,-2.12755 1.33188,-2.12754 -0.73175,-0.73176 -0.73175,-0.73175 -3.3205,1.51289 -3.3205,1.5129 -1.413,-1.41312 -1.41313,-1.41312 1.6,-1.92797 1.60012,-1.92798 2.89813,0 2.89825,0 0.68775,-1.11294 0.68788,-1.11294 -4.36413,-0.81869 -4.364,-0.81872 0,-1.09403 0,-1.09404 4.0625,-0.81764 c 2.23438,-0.4497 5.04688,-1.0948 6.25,-1.43355 l 2.1875,-0.61592 0,-1.31155 0,-1.31155 -2.1875,0.62897 c -1.20312,0.34593 -3.12875,1.01766 -4.27912,1.49274 l -2.09163,0.86376 -1.50375,-2.80979 -1.50375,-2.80978 3.36175,-2.4489 3.36188,-2.4489 -3.5165,-3.7616 -3.51638,-3.76159 3.87663,0.72991 3.87662,0.72991 2.68588,-0.70237 c 3.77762,-0.98788 3.34175,-2.19673 -1.2945,-3.58979 l -3.98038,-1.196 -0.54275,-1.69435 -0.54275,-1.69435 3.77913,0.83003 3.77912,0.83003 0.81775,-1.32317 0.81775,-1.32319 2.42625,0 2.42625,0 0,-1.1708 0,-1.1708 -3.9365,-0.3917 -3.93637,-0.3917 -1.31838,-2.10612 -1.31825,-2.10613 1.81725,-3.51887 c 0.9995,-1.93538 2.47288,-4.08138 3.27425,-4.76888 0.80138,-0.6875 1.66563,-2.375 1.92038,-3.75 l 0.46325,-2.5 2.44937,0.43784 2.44938,0.43782 -2.23563,-2.4703 -2.23562,-2.47028 -0.75963,-4.84254 -0.7595,-4.84254 2.47388,2.1875 c 1.36075,1.20313 2.8515,2.1875 3.313,2.1875 1.31687,0 0.98287,-4.56689 -0.58588,-8.00986 l -1.425,-3.12749 1.64388,-3.96862 1.64387,-3.96863 1.5645,5.29874 1.56463,5.29875 -0.66313,1.72802 -0.66312,1.72802 2.00462,0.76927 2.00475,0.76928 0,1.54921 c 0,0.85207 -0.90862,3.37071 -2.01925,5.59697 l -2.01937,4.04777 1.2785,1.27848 1.2785,1.27849 1.40975,-2.6342 c 0.77537,-1.44881 1.9525,-2.6342 2.61587,-2.6342 l 1.206,0 0,2.25 c 0,1.2375 0.50463,2.78438 1.12138,3.4375 0.61674,0.65313 1.49112,3.46669 1.943,6.25236 l 0.82175,5.06487 -3.19313,1.70886 c -3.67813,1.96847 -3.9195,2.8774 -1.33387,5.0232 l 1.859,1.5429 1.93825,-0.74378 1.93825,-0.74376 0.674,1.75625 0.67387,1.75625 -1.39025,2.59768 -1.39025,2.59767 1.22775,0 1.22775,0 -0.18863,5.3125 -0.18862,5.3125 -1.93263,1.50318 -1.93262,1.50316 4.02675,0.83342 4.02662,0.83342 -1.21762,2.27505 -1.2175,2.27505 1.25337,0.77463 c 0.68938,0.42605 1.25338,1.31785 1.25338,1.9818 l 0,1.20717 -3.20025,1.21672 -3.20013,1.21671 0.77388,1.25235 0.774,1.25234 2.56,0 2.56,0 -0.78038,2.03344 -0.78025,2.03344 1.35225,1.62938 1.35225,1.62939 -2.4245,1.29759 -2.42462,1.2976 -0.646,2.47046 -0.646,2.47045 3.608,0.38163 3.608,0.38162 -1.86813,3.58039 c -2.30574,4.41901 -2.3055,4.54461 0.0125,4.54461 l 1.875,0 0,1.68126 0,1.68127 -2.28587,2.06873 -2.286,2.06874 -2.714,0 -2.71413,0 0,1.15361 0,1.1536 9.5435,-0.72177 9.54363,-0.72178 -0.574,1.75567 -0.57388,1.75567 -5.53212,1.35566 -5.53213,1.35566 0,1.76934 0,1.76934 3.125,0.3645 c 1.71875,0.20048 4.39725,1.00219 5.95225,1.78159 l 2.82713,1.4171 -0.72388,2.2809 -0.72399,2.28091 1.95924,0 1.95925,0 0,1.17623 c 0,0.64692 -0.64775,1.57653 -1.43937,2.06581 l -1.43937,0.88957 2.24987,1.64513 2.24987,1.64512 -1.4835,1.78745 -1.48349,1.78745 -0.26451,7.27539 -0.2645,7.27538 -5,1.40155 -5,1.40153 0.625,1.1372 0.625,1.13719 5.9375,-0.42732 5.9375,-0.42733 0,2.02076 0,2.02077 -3.125,1.18812 -3.125,1.18812 0,1.7722 0,1.7722 1.88975,0.72519 1.88988,0.72519 3.12812,-1.42527 3.12813,-1.42528 -0.76513,-2.41066 -0.76512,-2.41067 4.18475,-3.49448 4.18462,-3.49449 -0.33412,-8.11898 -0.33425,-8.11897 1.58425,-0.59229 1.58412,-0.59229 9.375,2.21798 9.375,2.21797 1.26638,-1.05001 1.26637,-1.05001 11.85863,-0.60316 c 6.52225,-0.33175 13.968,-0.99752 16.54612,-1.47949 l 4.6875,-0.87631 0,1.38675 0,1.38676 6.62975,0 6.62988,0 3.99512,-4.12201 3.99525,-4.122 0,-2.70902 0,-2.70901 2.57825,-1.37984 2.57825,-1.37985 7.73425,-0.0465 c 7.84838,-0.0471 12.79013,0.42459 29.60925,2.82647 l 9.375,1.33881 3.45613,-1.32468 3.456,-1.32467 -0.69613,-4.71136 -0.69612,-4.71138 2.30175,-12.5 2.30175,-12.5 1.67075,0 1.67075,0 1.9105,6.875 c 1.99975,7.19625 2.1135,9.77511 0.80662,18.29903 l -0.79312,5.17402 1.33337,2.49152 1.33338,2.49151 4.09725,0.92505 4.09713,0.92505 14.0625,-0.0794 14.0625,-0.0794 0,1.17625 0,1.17624 1.57025,0 1.57025,0 6.69237,-6.93328 6.6925,-6.93326 1.42475,0.46702 1.42488,0.46704 0.41462,4.27373 0.41463,4.27371 1.24612,1.50142 1.246,1.50143 -0.83638,6.69411 -0.83637,6.69411 1.89837,1.57552 1.89838,1.57551 3.77775,-1.95353 c 2.07775,-1.07445 4.58925,-1.95353 5.58112,-1.95353 l 1.80326,0 0.72412,1.88698 0.72413,1.88699 -1.25575,6.55051 -1.25575,6.55052 2.82575,1.875 c 1.55412,1.03125 3.82237,2.85937 5.04037,4.0625 1.218,1.20312 2.77713,2.1875 3.46463,2.1875 l 1.25,0 0.0125,-7.1875 c 0.0125,-3.95313 0.54975,-19.5625 1.20587,-34.6875 0.65613,-15.125 1.50488,-37.34375 1.88613,-49.375 0.38112,-12.03125 1.32212,-33.6875 2.091,-48.125 0.769,-14.4375 1.4655,-32.55419 1.54787,-40.2593 l 0.14988,-14.00929 1.3835,-1.38356 1.38362,-1.38357 1.94188,1.94188 1.94187,1.94186 -0.483,7.20099 c -0.43787,6.52914 -2.0115,45.1168 -3.6325,89.07599 -0.34225,9.28125 -1.18275,28.6875 -1.86787,43.125 -0.685,14.4375 -1.26025,34.48218 -1.27825,44.54373 l -0.0325,18.29374 3.081,2.01876 3.081,2.01877 4.64937,0 4.64938,0 5.70712,2.61257 c 8.58488,3.92991 10.39275,4.62461 14.17213,5.44589 l 3.46487,0.75295 0.70863,-1.84668 0.70862,-1.84666 3.3265,0.0655 c 1.8295,0.036 5.47613,-0.69365 8.10363,-1.62154 l 4.77725,-1.68709 -0.49125,-3.38953 -0.49126,-3.38954 1.65151,-0.63374 1.6515,-0.63372 0,-1.97925 0,-1.97927 -3.75,-1.30724 -3.75,-1.30727 0,-2.34677 0,-2.34679 -3.4375,1.31091 -3.4375,1.31091 -7.70575,0.048 -7.70563,0.0479 -1.49025,-0.92103 -1.49025,-0.92103 1.69588,-1.07462 c 0.93287,-0.59103 3.05962,-1.08322 4.72637,-1.09375 l 3.03038,-0.0191 -2.63463,-2.8125 c -3.40663,-3.6367 -4.86075,-7.6025 -5.9325,-16.18021 l -0.86887,-6.95505 1.34925,-0.83393 1.34937,-0.83392 2.52575,1.35178 2.52588,1.35179 0,-1.22021 c 0,-0.67111 -0.62313,-1.6053 -1.38463,-2.07598 l -1.38462,-0.85576 0.7495,-4.6873 0.7495,-4.68731 -2.6095,-3.31745 -2.6095,-3.31745 0.70537,-1.83825 0.70538,-1.83825 3.47675,-0.0398 3.47675,-0.0398 -2.1875,-1.66055 c -3.02313,-2.29491 -2.766,-2.93422 1.5625,-3.88494 l 3.75,-0.82364 0,-1.00874 0,-1.00876 -5.625,-0.84352 -5.625,-0.84353 0,-2.34963 0,-2.34964 1.5115,-0.93417 1.51162,-0.93419 5.53663,0.34047 5.53675,0.34049 -0.7565,-2.89279 -0.75638,-2.89279 3.317,-3.46227 3.31713,-3.46229 -3.98388,0 -3.98387,0 0,-1.72195 c 0,-0.94706 0.81037,-2.39444 1.80075,-3.21639 l 1.80062,-1.49445 -0.6855,-1.78653 -0.68562,-1.78654 2.92862,-2.37139 2.9285,-2.3714 -3.10625,-2.58408 -3.10612,-2.58409 -2.8125,-0.0416 -2.81813,-0.0414 0,-1.72335 0,-1.72335 3.4375,-1.28448 c 1.89063,-0.70647 4.4575,-1.61448 5.70425,-2.01782 l 2.26675,-0.73334 -0.83,-1.34297 -0.83,-1.34297 2.62575,-0.68665 2.62575,-0.68665 0,-1.10421 0,-1.10421 -2.5,0 -2.5,0 0,-1.25 0,-1.25 1.875,0 1.875,0 0,-1.25 0,-1.25 -4.47912,0 -4.47925,0 0.45687,-0.9375 c 0.25113,-0.51563 1.23213,-2.48438 2.17975,-4.375 l 1.723,-3.4375 2.85063,0 2.85062,0 0.74975,-1.21329 0.74988,-1.21329 -1.79813,-3.47716 c -0.98887,-1.91244 -2.98062,-4.54739 -4.426,-5.85545 -1.44537,-1.30805 -2.628,-2.8536 -2.628,-3.43455 l 0,-1.05626 2.5,0 2.5,0 0,1.25 0,1.25 2.30625,0 2.30625,0 2.2625,2.5 2.2625,2.5 1.68125,0 1.68125,0 0,-1.99203 0,-1.99202 -2.48287,-0.64929 -2.48288,-0.64928 -2.73425,-5.47487 -2.73437,-5.47486 0.83687,-0.83687 0.83688,-0.83688 3.13037,1.42625 3.13025,1.42625 0,-0.80088 c 0,-0.44048 -1.43462,-3.24879 -3.188,-6.24071 l -3.18787,-5.43982 0.8345,-1.3502 0.83437,-1.35022 3.12363,0.5971 3.1235,0.59711 -0.64463,-4.80549 -0.6445,-4.8055 1.81275,-1.50445 1.81275,-1.50447 0.7075,2.70557 0.70763,2.70556 1.6455,0 1.64562,0 -0.11,3.86134 -0.11,3.86133 3.43725,2.74078 3.43725,2.74076 -2.74237,4.64789 -2.74238,4.6479 2.936,0.0532 2.936,0.0532 -5.625,4.94332 -5.625,4.94333 1.875,-0.0157 c 1.03125,-0.009 2.69188,-0.53253 3.69038,-1.16414 l 1.81525,-1.14837 1.00062,0.61837 1.0005,0.61839 -1.3025,2.43365 -1.30237,2.43365 5.10087,-2.04099 5.101,-2.04099 0.88363,0.88368 0.88375,0.88367 -2.053,1.50114 -2.05288,1.50114 0.35538,4.33416 c 0.19537,2.38379 0.417,4.66575 0.49237,5.07101 0.075,0.40528 1.6545,1.4283 3.50925,2.27339 l 3.37238,1.53653 -1.80988,1.16445 c -0.99537,0.64045 -3.91912,1.74847 -6.49725,2.4623 l -4.6875,1.29785 0,1.3093 0,1.30931 5.3125,-0.41999 5.3125,-0.41999 -0.34512,3.34359 -0.345,3.34359 1.2825,0.79269 c 0.7055,0.43597 1.28262,1.3359 1.28262,1.99985 l 0,1.20716 -3.307,1.25731 -3.30687,1.2573 2.86537,3.05011 2.86538,3.05012 -1.5865,1.91163 -1.5865,1.91165 4.52812,0 4.528,0 0,1.91423 0,1.91424 -2.1875,0.8208 c -2.25662,0.84675 -5.20262,4.01096 -5.27275,5.66323 l -0.0393,0.93758 2.35625,0 2.35625,0 2.18412,3.33336 2.18413,3.33338 -2.27937,1.66662 -2.27925,1.66664 -4.136,0 -4.13613,0 0,1.22619 0,1.22619 3.12225,0.78361 3.12213,0.78362 1.83774,-0.70521 1.83776,-0.70521 0.85612,1.38503 0.856,1.38504 -2.066,1.51068 c -2.83538,2.07327 -2.58888,3.1065 0.7465,3.1292 1.54687,0.01 3.61787,0.52881 4.60225,1.15175 l 1.78987,1.13261 -1.58,5.27351 -1.57999,5.27352 1.41612,0.87523 1.41613,0.87523 -0.231,5.51201 -0.231,5.512 1.72575,4.15286 1.72562,4.15285 -2.36962,1.32611 -2.36963,1.32612 2.999,2.34886 2.999,2.34886 -2.10737,1.25197 -2.1075,1.25196 0.53437,8.50825 0.53438,8.50825 -1.552,2.08807 -1.55188,2.08808 -7.812,0.32389 -7.812,0.32387 -5e-4,0.86563 -5e-4,0.86562 -5.21537,0.38438 -5.21538,0.38437 -0.49612,1.50957 -0.49613,1.50958 4.61413,1.92792 c 2.53775,1.06037 5.88287,1.92793 7.4335,1.92793 l 2.81925,0 1.55612,-1.875 c 0.85588,-1.03125 2.04975,-1.875 2.653,-1.875 l 1.097,0 0,1.875 0,1.875 2.35625,0 2.35625,0 2.02613,-3.09227 2.02612,-3.09228 3.7395,0.7479 3.7395,0.74791 1.78538,-1.48172 1.78537,-1.48173 1.89813,0.3886 1.89812,0.38859 1.826,-2.47557 1.826,-2.47559 4.536,2.16309 4.53613,2.16307 4.9575,0 4.95762,0 0,-0.7997 c 0,-0.43983 -0.948,-1.49289 -2.10663,-2.34013 l -2.10675,-1.54042 3.67775,-4.84737 3.67775,-4.84738 -0.0412,-1.875 c -0.0225,-1.03125 -0.497,-2.60276 -1.05362,-3.49225 l -1.01213,-1.61726 1.614,-1.94477 1.614,-1.94476 -0.28737,-3.77247 -0.2875,-3.77249 1.47812,-1.78098 1.478,-1.78097 -1.447,-1.44703 -1.44737,-1.44702 0,-2.25 0,-2.25 3.278,0 3.27813,0 -1.45213,-1.74966 -1.45213,-1.74968 2.50525,-4.4602 2.50513,-4.4602 -2.73425,-1.91512 -2.73425,-1.91514 3.40312,0 3.40313,0 0,-0.85694 c 0,-0.47131 -1.18388,-2.11717 -2.631,-3.65746 l -2.63088,-2.80052 0.82963,-1.34254 0.82975,-1.34254 2.11375,-0.0191 c 1.16263,-0.01 2.95275,-0.54962 3.97825,-1.19795 l 1.86463,-1.17882 -1.4075,-1.40746 -1.4075,-1.40746 0.62625,-2.39459 0.62625,-2.39459 2.04162,-0.0398 2.04175,-0.0398 -2.1875,-1.66055 -2.1875,-1.66055 0,-5.21392 0,-5.21393 1.86613,-0.71608 1.86612,-0.7161 -0.709,-2.82462 -0.70887,-2.82461 2.449,-0.64044 2.449,-0.64043 -0.62688,-3.27963 -0.627,-3.27962 2.64575,0 2.64575,0 0,-1.80413 0,-1.80411 -2.6355,-1.84599 -2.6355,-1.84599 0.88187,-1.427 c 0.48513,-0.78485 2.29663,-1.96482 4.0255,-2.62216 l 3.1435,-1.19517 -0.8555,-2.79023 c -0.95575,-3.11731 -0.95987,-3.35892 -0.17425,-10.09131 0.55375,-4.74393 1.46875,-6.77171 2.56225,-5.67815 0.30938,0.30934 0.918,4.48121 1.35238,9.27084 0.4345,4.78962 1.01237,9.42426 1.28425,10.29921 l 0.49425,1.5908 2.4715,-1.54349 2.4715,-1.54349 0.94712,0.94703 0.947,0.94704 -1.51525,2.42618 c -0.83325,1.3344 -1.51512,3.48297 -1.51512,4.77458 l 0,2.34839 2.368,3.01038 2.368,3.01039 -0.19863,3.94706 c -0.10875,2.17088 -0.61225,4.36082 -1.11787,4.86652 -0.50575,0.50571 -0.9195,1.42612 -0.9195,2.04536 l 0,1.12591 2.5905,-0.8222 2.5905,-0.8222 -1.95663,3.78378 -1.95662,3.78378 0.74987,1.95418 0.74988,1.95419 3.61625,0 3.61625,0 0,1.875 0,1.875 -1.25,0 -1.25,0 0,2.36626 0,2.36626 1.913,0.73409 1.913,0.73407 -2.59975,5.09575 -2.59963,5.09574 0.78201,2.46386 0.782,2.46385 -2.90775,2.42348 -2.90788,2.42346 2.1875,0.0416 2.1875,0.0416 0,2.29935 0,2.29936 -3.125,1.42385 -3.125,1.42384 0,1.2768 0,1.2768 1.875,0 1.875,0 0,1.72195 0,1.72194 -1.875,1.55611 -1.875,1.55611 0,1.72194 0,1.72195 -2.42625,0 -2.42625,0 -0.685,1.10836 -0.685,1.10838 1.87663,1.55747 1.87675,1.55749 -1.53075,1.84441 -1.53075,1.84443 2.37925,1.73972 2.37925,1.73974 2.97599,0 2.976,0 5.535,3.24378 5.53513,3.24377 0,1.13123 0,1.13122 2.10688,0 2.10699,0 2.8005,2.63096 2.80051,2.63097 1.17499,-0.72613 1.17488,-0.72614 -0.4735,-2.84232 -0.47337,-2.84234 4.00537,-2.5 4.00525,-2.5 1.53188,-9.375 c 0.8425,-5.15625 2.14362,-13.03125 2.89137,-17.5 4.177,-24.96275 6.55288,-41.98601 8.9845,-64.375 l 2.71513,-25 -0.16175,-8.29599 -0.16175,-8.296 1.861,-1.54456 1.86112,-1.54456 1.71813,1.42595 1.71825,1.42595 0.5915,6.15605 0.5915,6.15606 2.37774,3.36139 c 1.30788,1.84876 2.94726,4.27136 3.643,5.38355 4.60288,7.35682 7.6555,11.1724 19.95813,24.94587 l 13.77675,15.42372 12.49838,10.74573 12.49837,10.74573 0.40575,-2.10695 0.40575,-2.10694 1.70963,0 c 0.94025,0 2.01712,0.49765 2.393,1.10588 0.37599,0.60823 2.37787,1.35456 4.44887,1.65851 l 3.76525,0.55262 0,-0.81952 c 0,-0.45074 -2.35563,-1.90019 -5.23488,-3.221 l -5.23487,-2.40149 -0.49425,-1.5625 -0.49438,-1.5625 1.76275,0 1.76263,0 -0.55038,-3.75 -0.55037,-3.75 2.56812,0 2.56813,0 0.74437,1.20441 0.74425,1.2044 2.67538,-2.67527 2.67525,-2.67529 -2.72088,-1.80659 -2.72087,-1.80658 0,-1.56949 c 0,-0.86321 -0.84375,-2.26973 -1.875,-3.12559 -1.03125,-0.85586 -1.875,-2.27832 -1.875,-3.16104 l 0,-1.60491 2.5,0.65376 2.5,0.65377 0,-1.24273 c 0,-0.68351 -0.84375,-1.94299 -1.875,-2.79885 -1.03125,-0.85586 -1.875,-2.26539 -1.875,-3.13226 l 0,-1.57616 2.65475,-0.69423 2.65475,-0.69422 -0.80363,-3.20157 -0.8035,-3.20156 1.2,0 c 0.66013,0 1.54775,0.5625 1.97263,1.25 0.42487,0.6875 1.30187,1.25 1.94875,1.25 l 1.17625,0 0,-2.5 0,-2.5 1.25,0 1.25,0 0,-3.75 0,-3.75 1.25,0 1.25,0 0,4.22921 0,4.22922 2.5935,0.67821 2.5935,0.67822 -1.285,2.40108 -1.285,2.40107 1.3775,1.37744 1.37737,1.37744 3.58651,-1.85465 3.5865,-1.85466 0.79775,2.07866 0.79762,2.07866 -3.00762,2.42063 c -1.65425,1.33135 -4.85838,3.24513 -7.1205,4.25288 l -4.11288,1.83225 0.74913,1.21217 0.74912,1.21217 2.87538,0 2.87525,0 5.4885,-4.36286 c 3.01862,-2.39959 5.91025,-4.36834 6.42587,-4.375 l 0.9375,-0.0125 0,2.4026 0,2.40259 -5.18287,4.4364 -5.183,4.4364 1.60937,1.93923 1.6095,1.93923 2.3235,-0.73746 2.3235,-0.73747 0,1.95924 0,1.95924 1.5625,0.0397 1.5625,0.0398 -2.42637,1.83523 -2.4265,1.83525 -3.07975,0 -3.07988,0 2.2625,2.5 2.2625,2.5 1.7205,0 1.7205,0 0.65013,1.69437 0.65024,1.69437 -2.68399,4.54899 -2.684,4.54899 1.99462,0.76537 1.9945,0.76539 0,1.77251 0,1.77251 -3.776,0.7552 c -2.07687,0.41537 -4.06462,1.22218 -4.41737,1.7929 l -0.64138,1.03772 1.20113,2.23833 c 0.66062,1.2311 1.489,3.17907 1.84087,4.32883 l 0.63988,2.09046 2.57637,-0.67375 2.5765,-0.67376 0,1.74674 0,1.74673 -3.8135,1.43943 -3.81337,1.43941 1.62587,2.66148 1.626,2.66148 3.4375,-0.6706 3.4375,-0.6706 0,3.63364 0,3.63363 3.56275,2.53691 3.56275,2.53691 4.68538,-0.76032 4.68525,-0.76032 2.2735,-5.30377 c 1.25037,-2.91706 2.8665,-5.67028 3.59137,-6.11824 2.12275,-1.31195 6.16774,-11.44981 7.54844,-18.91804 l 1.2761,-6.90322 1.9073,-2.72298 1.9072,-2.72296 0,-3.31921 0,-3.31921 1.7614,-4.21548 1.7612,-4.21547 -0.6306,-3.29907 -0.6306,-3.29905 1.8456,-2.95062 c 1.015,-1.62285 2.2045,-4.4975 2.6431,-6.38813 0.4387,-1.89062 1.2087,-3.43311 1.7113,-3.42775 2.4839,0.0265 6.5851,15.16408 7.1092,26.24025 l 0.207,4.375 2.6654,4.27688 2.6655,4.27686 -1.2479,2.33164 -1.2478,2.33164 1.9273,3.86352 1.9274,3.86351 -0.6891,2.74573 -0.6891,2.74574 1.7953,1.48997 1.7953,1.48999 1.472,-3.55356 1.4719,-3.55358 4.3131,-4.06822 4.3131,-4.06823 0.2138,2.28906 c 0.1175,1.25898 0.2582,3.6953 0.3125,5.41405 l 0.099,3.125 1.7204,-0.36515 1.7205,-0.36513 1.788,2.55263 1.7878,2.55265 2.19033,0 c 1.2046,0 3.2427,-0.7697 4.5294,-1.71045 l 2.3391,-1.71046 -2.6148,-1.3994 -2.6148,-1.39941 1.4521,-3.13039 1.452,-3.13039 2.0345,-0.01 2.0344,-0.01 1.3734,-1.65473 1.3732,-1.65475 -1.4702,-1.47025 c -0.8087,-0.80788 -2.2015,-1.46949 -3.0953,-1.46949 l -1.625,0 0,-1.25 0,-1.25 2.9913,0 2.9912,0 0.7629,-1.9878 0.7627,-1.9878 -0.7028,-1.1372 -0.7028,-1.1372 -2.4262,0 -2.4263,0 0,-2.97195 0,-2.97194 1.875,-1.55611 c 1.0313,-0.85586 1.875,-2.2708 1.875,-3.14433 l 0,-1.5882 1.875,-0.71951 1.875,-0.7195 0,-1.87025 0,-1.87025 -2.7847,-1.49032 -2.7847,-1.49031 4.9693,-1.72043 c 2.7331,-0.94622 5.7942,-2.54538 6.8026,-3.55365 l 1.8333,-1.83325 -3.9442,0 -3.9441,0 -0.685,-1.10836 -0.685,-1.10838 1.8613,-1.54468 1.8612,-1.54469 0,-2.81948 0,-2.81948 2.7739,-1.84178 2.7739,-1.84179 -1.333,-2.98743 -1.3332,-2.98744 2.4424,-4.38574 c 1.3434,-2.41216 3.0139,-5.08887 3.7123,-5.94825 l 1.2698,-1.5625 -1.4897,-1.7951 -1.4899,-1.7951 1.3808,-2.5799 c 2.4085,-4.5003 5.0427,-2.29126 5.0427,4.22876 l 0,2.85419 2.5685,3.26539 2.5686,3.26537 0.4288,6.30268 0.4286,6.30267 1.9889,3.03534 1.9889,3.03534 -1.2969,0.80146 -1.2968,0.80148 1.3323,1.60527 1.3322,1.60528 -0.8482,2.21037 -0.8481,2.21038 4.5766,-0.85858 c 5.2721,-0.98906 5.1922,-1.11341 2.6101,4.06265 l -1.9666,3.94205 -3.1376,0 -3.1377,0 0.5363,1.5625 0.5362,1.5625 5.7052,0 5.7051,0 0.854,0.84533 0.854,0.84533 -3.8663,1.99927 -3.8661,1.99927 0,1.2179 c 0,0.66985 0.5099,1.2179 1.133,1.2179 l 1.133,0 -0.6539,2.5 -0.6537,2.5 2.5721,0 2.572,0 0.685,1.10836 0.685,1.10838 -1.8895,1.56811 -1.8895,1.56811 0.8011,2.63602 c 0.4407,1.44981 1.614,3.5635 2.6075,4.69708 l 1.8065,2.06108 -2.8575,2.00142 -2.8573,2.00144 2.8347,0 2.8348,0 -0.8208,4.375 -0.8207,4.375 2.6391,0 2.6391,0 0,1.875 0,1.875 -3.125,0 -3.125,0 0,1.77276 c 0,0.97503 -0.3414,2.66253 -0.7587,3.75 l -0.7588,1.97724 6.4105,0 6.4106,0 1.5357,-3.42036 c 0.8446,-1.88119 2.5201,-4.41244 3.7232,-5.625 l 2.1875,-2.20464 0.1384,-2.8125 c 0.076,-1.54688 0.045,-4.00748 -0.069,-5.46799 l -0.2072,-2.65549 3.1609,-4.65773 3.1607,-4.65774 0.8,-4.26414 0.7999,-4.26414 -0.6666,-2.54923 -0.6667,-2.54924 5.1142,-8.87039 5.1142,-8.87039 0.2828,-5.12801 c 0.4118,-7.46746 2.2453,-14.57567 5.4868,-21.27151 l 2.8525,-5.89254 -0.6527,-4.02216 -0.6528,-4.02216 1.708,-3.08482 1.7079,-3.08482 0.044,-3.82359 0.044,-3.82359 1.6843,-2.30327 1.6841,-2.30328 0.9906,1.60282 c 1.1375,1.84063 1.9332,8.34846 2.4614,20.13032 l 0.369,8.22943 1.5116,2.8245 1.5116,2.82451 -0.7174,2.85782 -0.7172,2.85783 2.7711,3.52285 2.771,3.52284 0.105,6.40811 0.1038,6.40812 4.087,5.69113 4.0871,5.69112 -0.3204,4.84117 c -0.1761,2.66263 -0.2218,6.66766 -0.1012,8.90006 l 0.2187,4.0589 4.5244,5.00799 4.5245,5.00798 -1.3434,1.61855 -1.3432,1.61857 -0.1608,4.31456 -0.1607,4.31455 1.706,4.54229 c 0.9384,2.49826 2.4606,5.45138 3.3827,6.5625 l 1.6767,2.02021 3.9437,0 3.9439,0 2.7474,-1.92439 2.7475,-1.92439 -0.7609,-5.55095 -0.7608,-5.55093 2.354,-0.83594 c 1.2948,-0.45976 3.479,-1.78218 4.854,-2.9387 3.7745,-3.17475 11.7805,-7.5247 13.849,-7.5247 l 1.831,0 3.6695,-5.78616 3.6695,-5.78617 4.1155,-2.74596 c 2.2635,-1.51029 8.0277,-4.29404 12.8092,-6.18612 4.7815,-1.89208 10.2658,-4.55968 12.1875,-5.92799 l 3.4938,-2.48784 0,-1.63741 0,-1.63743 2.7827,-1.84757 2.7826,-1.84758 -1.5726,-3.45136 -1.5725,-3.45135 1.5951,-3.60354 c 0.8781,-1.98193 2.0211,-3.60352 2.5407,-3.60352 l 0.9449,0 0,6.875 0,6.875 2.9688,0 c 1.6328,0 4.7237,-0.35101 6.8688,-0.78003 l 3.9002,-0.78002 2.5963,-4.20104 2.5964,-4.20104 -0.8999,-2.83143 c -0.495,-1.55729 -1.0126,-4.67919 -1.1504,-6.93755 l -0.2503,-4.10612 1.06,-0.65516 1.0601,-0.65515 0,-3.60246 0,-3.60246 1.25,-0.77254 1.25,-0.77254 0,-3.42624 0,-3.42622 -1.4085,-1.4085 -1.4085,-1.4085 2.7977,-4.52676 2.7977,-4.52677 -1.9889,-2.19771 -1.9889,-2.1977 3.5954,-7.42954 c 4.5444,-9.39053 7.4957,-18.16552 8.449,-25.12091 l 0.7447,-5.43361 1.0802,0 1.0801,0 0,7.30134 0,7.30133 1.8111,6.0181 1.8113,6.01812 4.6925,4.80555 4.6925,4.80556 -2.2643,0 -2.2641,0 0.8815,3.4375 c 0.4849,1.89062 1.3966,6.53125 2.0262,10.3125 0.6295,3.78125 1.4855,8.84375 1.9023,11.25 l 0.7576,4.375 2.558,2.80014 2.5579,2.80013 -1.4563,3.19618 c -1.844,4.04712 -1.8266,4.32855 0.2672,4.32855 l 1.7233,0 1.2944,-3.4375 c 2.8574,-7.58851 4.0089,-12.11728 4.0089,-15.76689 l 0,-3.83132 1.7531,1.83035 1.7531,1.83036 1.4899,10 c 0.8194,5.5 1.7884,12.22727 2.1531,14.9495 l 0.6633,4.94949 2.5305,3.42252 2.5304,3.42254 -2.0618,3.1465 c -1.1339,1.73056 -2.0616,3.69087 -2.0616,4.35624 l 0,1.20973 2.6059,0.8271 2.606,0.82709 -0.7522,2.99661 -0.7521,2.99663 1.7269,4.13299 1.7269,4.133 4.8568,0.16635 4.8568,0.16636 2.095,-2.69838 2.095,-2.69838 4.2437,1.53456 c 2.3342,0.844 5.6749,1.53455 7.4239,1.53455 l 3.1803,0 3.3748,2.6547 3.3749,2.65469 5.4169,-2.78599 5.4169,-2.786 5.1267,0.86617 5.1269,0.86618 0,-1.04738 0,-1.04737 6.613,0 6.6131,0 4.9494,-3.75 c 2.7222,-2.0625 7.0589,-4.82295 9.637,-6.13434 l 4.6875,-2.38434 0,-2.74466 c 0,-1.50956 1.4647,-6.62411 3.2549,-11.36566 1.7902,-4.74155 3.6516,-10.89156 4.1363,-13.66671 0.4848,-2.77514 1.329,-5.76988 1.876,-6.65497 0.547,-0.88508 1.1538,-3.11452 1.3482,-4.95428 0.1945,-1.83978 1.2477,-8.92905 2.3405,-15.75397 l 1.987,-12.40892 1.2376,-1.2376 1.2375,-1.23759 0.5741,1.77151 c 0.6384,1.97014 2.1535,18.67913 2.4843,27.39653 l 0.2133,5.625 1.5302,2.73032 c 0.8416,1.50168 1.5301,3.55088 1.5301,4.55377 l 0,1.82343 2.0169,0.77393 2.0167,0.77392 -0.6605,2.52568 -0.6605,2.52567 3.0075,1.97053 3.0074,1.97054 9.0737,-5.50148 c 4.9907,-3.02581 11.605,-6.83376 14.6988,-8.46211 3.0937,-1.62834 8.6031,-4.91031 12.243,-7.29326 7.434,-4.86692 15.774,-9.45548 27.757,-15.27147 4.4687,-2.16893 9.1017,-4.46123 10.2955,-5.094 1.1939,-0.63276 3.3966,-1.15047 4.8951,-1.15047 l 2.7245,0 9.48,-5.8577 c 5.2139,-3.22174 11.3218,-7.2365 13.573,-8.92171 l 4.0931,-3.06403 7.0137,0.72388 7.0136,0.72386 8.6132,-1.94513 8.6134,-1.94512 1.2076,-2.25648 1.2077,-2.25648 8.0608,-0.86325 8.061,-0.86327 3.5114,2.4141 c 1.9313,1.32775 6.3239,3.45037 9.7614,4.71692 3.4375,1.26655 8.3829,3.63907 10.9897,5.27227 l 4.7398,2.96946 8.3852,0.16147 8.3853,0.16146 14.2247,-4.7002 14.2249,-4.7002 4.646,-4.73984 4.646,-4.73985 2.3791,-0.70749 c 1.3087,-0.38911 7.082,-1.5794 12.8299,-2.64507 l 10.4505,-1.9376 6.259,0 6.259,0 4.5404,-4.74594 c 2.4972,-2.61027 10.9095,-11.89152 18.6939,-20.625 l 14.1535,-15.87906 1.6502,0 1.6504,0 0.7115,1.85392 0.7114,1.85393 1.8079,-0.69374 1.8078,-0.69375 1.5373,-3.71134 c 0.8455,-2.04123 2.5767,-5.03281 3.8472,-6.64793 l 2.3099,-2.93659 10.3298,0.62474 10.3297,0.62472 9.375,-1.98566 9.375,-1.98566 3.125,2.48044 c 1.7188,1.36423 4.251,3.29438 5.6274,4.28922 l 2.5024,1.80879 9.3726,1.4035 c 5.1549,0.77192 13.2012,2.51945 17.8806,3.88337 4.6794,1.36393 12.5314,3.14973 17.449,3.96845 l 8.9411,1.48859 0.9768,4.72497 0.9766,4.72498 5.2001,9.47496 5.2003,9.47498 5.9007,4.23928 5.9008,4.23928 0.8259,6.22574 0.8258,6.22573 2.5577,1.36879 2.5576,1.3688 1.7772,-0.68202 1.7774,-0.68203 0,-3.63617 0,-3.63618 1.8588,-1.54263 1.8587,-1.54264 3.0325,0.7611 3.0325,0.7611 7.02,7.99596 7.0201,7.99596 4.0262,0.64286 c 2.2145,0.35359 7.9637,1.28132 12.7762,2.06164 4.8125,0.78033 9.8484,1.53504 11.1909,1.67715 l 2.4407,0.25839 1.0657,-6.25 1.0655,-6.25 1.5875,-1.61178 1.5876,-1.61177 5.9471,2.54927 c 3.271,1.40211 6.7179,2.54928 7.6599,2.54928 2.2809,0 8.0801,-2.68238 8.0801,-3.7374 l 0,-0.8361 -2.8125,0.0992 -2.8125,0.0993 0,-1.58251 0,-1.58253 3.5553,-2.33217 3.5551,-2.33218 2.3824,0.62298 2.3822,0.62299 0,1.76845 0,1.76843 2.1875,0.77576 c 1.2031,0.42668 3.1719,1.62121 4.375,2.65452 l 2.1875,1.87874 0,2.06105 0,2.06106 4.3438,4.2101 4.3437,4.2101 2.8741,-1.30954 2.8742,-1.30955 5.5946,1.02748 c 8.8329,1.6222 12.9961,2.67732 14.3446,3.63552 0.6875,0.48851 2.2663,1.25136 3.5084,1.69521 l 2.2584,0.807 3.0386,-3.27882 3.0387,-3.27883 1.9139,1.58839 1.9139,1.58838 2.3977,-2.16997 2.3979,-2.16996 1.3288,0.82123 c 0.7307,0.45166 1.3287,1.63177 1.3287,2.62245 l 0,1.80122 1.3138,0 1.3138,0 1.8279,4.375 1.828,4.375 1.73,0 c 0.9515,0 5.1311,1.6875 9.2881,3.75 4.157,2.0625 8.3647,3.75 9.3503,3.75 l 1.792,0 1.5015,-1.80921 1.5015,-1.80923 5.8391,-2.14738 c 3.2114,-1.18107 6.3734,-2.61692 7.0265,-3.19078 0.6531,-0.57387 2.5746,-1.0434 4.2701,-1.0434 l 3.0825,0 9.48,-5.8577 c 5.2139,-3.22174 11.3218,-7.2365 13.573,-8.92171 l 4.0932,-3.06403 7.0136,0.72388 7.0136,0.72386 8.6133,-1.94512 8.6133,-1.94513 1.2077,-2.25647 1.2076,-2.25649 8.0609,-0.86325 8.061,-0.86326 3.5113,2.4141 c 1.9313,1.32775 6.3239,3.45036 9.7614,4.71691 3.4375,1.26655 8.3829,3.63907 10.9898,5.27227 l 4.7397,2.96947 8.3853,0.16146 8.3852,0.16146 14.2248,-4.7002 14.2248,-4.7002 4.646,-4.73984 4.646,-4.73985 2.3792,-0.70748 c 1.3086,-0.38912 7.082,-1.57941 12.8298,-2.64508 l 10.4505,-1.9376 6.259,0 6.259,0 4.5404,-4.74594 c 2.4973,-2.61027 10.9095,-11.89152 18.6939,-20.625 l 14.1535,-15.87906 1.6502,0 1.6504,0 0.724,1.8866 0.7239,1.88659 1.5974,-0.32409 c 0.8785,-0.17826 1.9796,-1.16785 2.4468,-2.1991 l 0.8497,-1.875 0.088,187.19639 0.088,187.19638 -778.4375,-0.35612 -778.43762,-0.35614 -4.23775,-1.00542 -4.23775,-1.00544 -0.9795,1.5848 -0.9795,1.5848 -2.16587,-1.79463 -2.166,-1.79462 -27.61675,0.0901 -27.61688,0.0901 -4.375,1.13045 -4.375,1.13045 -1055.73519,0.34559 -1055.73509,0.34558 -1.4523,-3.18748 z m 2071.14912,-139.50939 1.43938,-2.68954 -2.12275,0.81454 c -1.16738,0.448 -2.92038,0.81454 -3.89538,0.81454 l -1.77275,0 0,1.875 0,1.875 2.456,0 2.456,0 1.4395,-2.68954 z m -11.25775,-2.65421 c -0.15463,-1.49463 -1.86913,-1.20518 -2.40625,0.40625 l -0.5,1.5 1.5,-0.5 c 0.825,-0.275 1.45788,-0.90781 1.40625,-1.40625 z m -378.64237,-4.65625 4.10575,-3.75 -3.25775,0 -3.25775,0 -0.77163,2.1875 c -0.42437,1.20312 -1.09937,2.89062 -1.5,3.75 -1.169,2.50775 0.28425,1.82869 4.68138,-2.1875 z m -46.45138,-6.875 c 0,-0.34375 -0.28125,-0.625 -0.625,-0.625 -0.34375,0 -0.625,0.28125 -0.625,0.625 0,0.34375 0.28125,0.625 0.625,0.625 0.34375,0 0.625,-0.28125 0.625,-0.625 z m 431.25,-1.74126 c 0,-1.26712 -3.80725,-2.99318 -4.67913,-2.12133 -0.99337,0.99341 1.00151,3.23759 2.87788,3.23759 l 1.80125,0 0,-1.11626 z m 104.375,-2.63374 0.7725,-1.25 -1.48,0 -1.48,0 0.75,-3.75 0.75,-3.75 -3.09375,0 -3.09375,0 0,3.5 0,3.5 1.5,1.5 c 1.82563,1.82561 4.32925,1.94206 5.375,0.25 z m -87.5,-6.25 0.7725,-1.25 -1.875,0 c -1.03125,0 -2.22263,0.5625 -2.6475,1.25 l -0.7725,1.25 1.875,0 c 1.03125,0 2.22263,-0.5625 2.6475,-1.25 z m 250.31238,-1.97934 -0.77101,-0.771 -1.35362,0.83654 -1.3535,0.83655 0.7865,1.27254 0.78638,1.27254 1.33812,-1.33808 1.33813,-1.33809 -0.771,-0.771 z m -637.604,1.146 -0.83338,-0.83332 -0.83337,0.83332 -0.83325,0.83334 1.66662,0 1.66663,0 -0.83325,-0.83334 z m 641.21575,-9.79458 0.72062,-1.87794 -2.94738,-2.47304 -2.94737,-2.47305 -3.75,0.73266 c -2.0625,0.40298 -4.275,1.22654 -4.91662,1.83015 l -1.16675,1.09748 0.751,0.75092 c 0.413,0.41302 3.04737,1.05895 5.85412,1.43543 l 5.10325,0.68449 0,1.08541 c 0,1.81777 2.53075,1.20984 3.29913,-0.79251 z m -795.79913,-2.52802 0,-1.90594 -3.20637,-1.21906 c -3.86176,-1.46824 -5.54363,-1.54668 -5.54363,-0.25858 0,1.01582 6.21863,5.19971 7.8125,5.25626 l 0.9375,0.0333 0,-1.90594 z m 718.79612,-1.27464 1.60226,-1.93057 3.5355,0.77655 3.53562,0.77654 3.71288,-2.64376 3.71287,-2.64378 7.69063,1.99285 7.69062,1.99286 0.64487,-0.64476 0.64475,-0.64476 -5.74962,-3.48779 -5.74962,-3.4878 0.60637,-1.70342 0.6065,-1.70344 -2.6575,-4.29981 -2.65737,-4.29983 0.78837,-0.78841 0.78837,-0.78843 1.47926,1.47918 1.47912,1.47916 2.46412,0 2.464,0 1.9735,1.75051 c 1.08538,0.96279 4.08275,2.62159 6.66088,3.68623 l 4.6875,1.9357 0,-1.18623 c 0,-0.65241 -0.58525,-1.18621 -1.30063,-1.18621 -0.71537,0 -2.96537,-1.23079 -5,-2.73507 l -3.69937,-2.73508 0,-2.19425 0,-2.19426 -3.75,-2.21518 c -2.0625,-1.21835 -3.75,-2.67618 -3.75,-3.23965 l 0,-1.02447 2.41787,1.29399 c 3.42688,1.83401 3.5615,1.73101 3.34588,-2.55798 l -0.19375,-3.85194 -9.55413,-9.58556 c -26.4425,-26.52956 -37.02037,-37.50581 -40.25712,-41.77305 -1.9555,-2.57812 -4.05125,-4.6875 -4.65713,-4.6875 l -1.10162,0 0,1.87166 c 0,1.02942 1.725,5.52254 3.83325,9.9847 l 3.83325,8.11304 -0.81537,1.31933 -0.8155,1.31931 3.23225,4.23757 c 1.77762,2.33068 3.23212,4.61655 3.23212,5.07973 l 0,0.84214 -1.875,-0.71952 -1.875,-0.7195 0.0438,1.52327 c 0.025,0.8378 0.80738,2.90118 1.74013,4.5853 l 1.69562,3.06201 -0.62237,1.62214 -0.6225,1.62213 3.95575,6.16452 3.95575,6.16451 -0.81063,4.32069 -0.8105,4.32067 1.36225,0.84193 1.36225,0.84191 0,7.27317 0,7.27318 1.875,1.55611 1.875,1.55611 0,2.34694 0,2.34695 -1.25,0 -1.25,0 0,1.625 c 0,1.71815 2.41788,4.625 3.847,4.625 0.46575,0 1.56788,-0.86876 2.44913,-1.93057 z m -227.54612,-3.06942 0,-1.25 -5.07375,0 -5.07375,0 0.7725,1.25 0.7725,1.25 4.30125,0 4.30125,0 0,-1.25 z m 443.47798,-2.30688 0.56,-1.68188 -2.2279,0.43188 -2.2279,0.43188 -0.56,1.68187 -0.56,1.68189 2.2279,-0.43189 2.2279,-0.43187 0.56,-1.68188 z m -745.97798,-3.73478 c 0,-0.57293 -0.35975,-1.40138 -0.79937,-1.84103 l -0.79938,-0.79935 -1.096,0.67739 -1.096,0.6774 0.71913,1.16362 c 0.89337,1.44559 3.07162,1.53208 3.07162,0.122 z m 6.25,-0.20834 c 0,-1.56615 -1.3265,-1.56615 -3.75,0 l -1.875,1.21171 2.8125,0.0191 2.8125,0.0191 0,-1.25 z m 685.25108,-5.13436 2.5868,-1.38435 -1.7314,-1.0965 c -0.9523,-0.60308 -2.997,-1.10513 -4.5439,-1.11565 l -2.8125,-0.0191 0,1.66666 c 0,3.45029 2.3689,4.16046 6.501,1.94898 z m -522.75108,-5.87673 c 0,-1.2436 -0.75838,-3.29828 -1.68537,-4.56597 l -1.68538,-2.30488 -1.43962,0.88974 -1.43963,0.88974 0,2.8429 c 0,3.44191 0.93713,4.50956 3.95838,4.50956 l 2.29162,0 0,-2.26109 z m 132.5,-3.36391 c 0,-0.34375 -0.28125,-0.625 -0.625,-0.625 -0.34375,0 -0.625,0.28125 -0.625,0.625 0,0.34375 0.28125,0.625 0.625,0.625 0.34375,0 0.625,-0.28125 0.625,-0.625 z m 285,-6.875 0,-1.25 -1.875,0 -1.875,0 0,1.25 0,1.25 1.875,0 1.875,0 0,-1.25 z m -780.59575,-9.34705 -4.97062,-4.25319 -0.6535,0.65343 -0.65338,0.65342 4.08138,3.64669 4.08137,3.6467 1.54275,-0.047 1.54275,-0.0469 -4.97075,-4.25318 z m 1180.59583,2.47205 c 0,-0.34375 -0.2812,-0.625 -0.625,-0.625 -0.3437,0 -0.625,0.28125 -0.625,0.625 0,0.34375 0.2813,0.625 0.625,0.625 0.3438,0 0.625,-0.28125 0.625,-0.625 z m -411.25008,-13.16423 0,-1.28923 -1.92887,-0.74019 -1.92901,-0.7402 -0.69625,0.69626 -0.69625,0.69626 0.82401,1.33317 c 0.45312,0.73323 1.6345,1.33316 2.62512,1.33316 l 1.80125,0 0,-1.28923 z m -155,-1.21077 c 0,-0.6875 -0.5625,-1.25 -1.25,-1.25 -0.6875,0 -1.25,0.5625 -1.25,1.25 0,0.6875 0.5625,1.25 1.25,1.25 0.6875,0 1.25,-0.5625 1.25,-1.25 z m 71.78575,-1.96429 c 1.08038,-1.08035 1.96425,-2.76785 1.96425,-3.75 l 0,-1.78571 -2.98313,0 -2.98312,0 -0.55038,3.75 -0.55037,3.75 1.56925,0 c 0.863,0 2.45313,-0.88393 3.5335,-1.96429 z m 94.46425,-6.78571 c 0,-0.6875 -0.5625,-1.25 -1.25,-1.25 -0.6875,0 -1.25,0.5625 -1.25,1.25 0,0.6875 0.5625,1.25 1.25,1.25 0.6875,0 1.25,-0.5625 1.25,-1.25 z m -93.30487,-8.41016 2.67987,-3.41018 0.20463,-4.40232 c 0.1125,-2.42129 1.1285,-8.39489 2.25762,-13.27468 l 2.05287,-8.87232 -2.72462,-4.61783 -2.72462,-4.61782 -1.321,0.44035 -1.321,0.44035 -0.35788,6.1748 c -0.19687,3.39615 -0.93725,12.36231 -1.64525,19.92481 -0.708,7.5625 -1.28912,14.17188 -1.2915,14.6875 -0.0125,1.8148 1.53888,0.90197 4.19088,-2.47266 z m -502.94513,-10.33984 0,-1.25 -1.875,0 -1.875,0 0,1.25 0,1.25 1.875,0 1.875,0 0,-1.25 z m 348.75,-22.5 c 0,-0.6875 -0.5625,-1.25 -1.25,-1.25 -0.6875,0 -1.25,0.5625 -1.25,1.25 0,0.6875 0.5625,1.25 1.25,1.25 0.6875,0 1.25,-0.5625 1.25,-1.25 z m -364.16662,-5.83334 -0.83338,-0.83332 -0.83337,0.83332 -0.83325,0.83334 1.66662,0 1.66663,0 -0.83325,-0.83334 z m 361.04162,-4.16666 0.7725,-1.25 -1.32375,0 -1.32375,0 0,1.25 c 0,0.6875 0.248,1.25 0.55125,1.25 0.30312,0 0.89888,-0.5625 1.32375,-1.25 z m -421.875,136.94877 0,-1.94877 1.25,0 c 0.6875,0 1.25,0.5293 1.25,1.17622 0,0.64693 -0.5625,1.52388 -1.25,1.94878 l -1.25,0.77254 0,-1.94877 z m 35,-9.44877 c 0,-0.6875 0.5625,-1.25 1.25,-1.25 0.6875,0 1.25,0.5625 1.25,1.25 0,0.6875 -0.5625,1.25 -1.25,1.25 -0.6875,0 -1.25,-0.5625 -1.25,-1.25 z m 1045.00008,-70.55123 0,-1.94877 1.25,0 c 0.6875,0 1.25,0.5293 1.25,1.17622 0,0.64693 -0.5625,1.52388 -1.25,1.94878 l -1.25,0.77254 0,-1.94877 z m -429.42645,-8.28193 -0.82401,-1.33317 0.667,-0.66701 0.66701,-0.667 1.33324,0.82394 c 1.64776,1.01839 1.75438,3.1764 0.15688,3.1764 -0.64687,0 -1.547,-0.59993 -2.00012,-1.33316 z m -156.82363,-26.16684 0,-1.25 2.5,0 2.5,0 0,1.25 0,1.25 -2.5,0 -2.5,0 0,-1.25 z m -18.75,-1.25 0,-1.25 3.125,0 3.125,0 0,1.25 0,1.25 -3.125,0 -3.125,0 0,-1.25 z m 185,-5 0,-1.66666 0.83338,0.83332 0.83324,0.83334 -0.83324,0.83334 -0.83338,0.83332 0,-1.66666 z m -123.33338,-2.08334 0.83338,-0.83332 0.83338,0.83332 0.83324,0.83334 -1.66662,0 -1.66662,0 0.83324,-0.83334 z m 10.83338,-4.79166 c 1.71875,-0.98253 3.6875,-1.78641 4.375,-1.78641 0.6875,0 -0.15625,0.80389 -1.875,1.78641 -1.71875,0.98252 -3.6875,1.78641 -4.375,1.78641 -0.6875,0 0.15625,-0.80389 1.875,-1.78641 z m 14.16662,-7.70834 0.83338,-0.83332 0.83338,0.83332 0.83324,0.83334 -1.66662,0 -1.66662,0 0.83324,-0.83334 z M 2043.1296,362.53652 c 0,-0.6875 0.5625,-1.25 1.25,-1.25 0.6875,0 1.25,0.5625 1.25,1.25 0,0.6875 -0.5625,1.25 -1.25,1.25 -0.6875,0 -1.25,-0.5625 -1.25,-1.25 z m -6.25,-9.375 c 0,-0.34375 0.2813,-0.625 0.625,-0.625 0.3438,0 0.625,0.28125 0.625,0.625 0,0.34375 -0.2812,0.625 -0.625,0.625 -0.3437,0 -0.625,-0.28125 -0.625,-0.625 z m -1397.51358,-26.27526 -1.686,-3.15025 1.47475,-1.47475 1.47475,-1.47474 0,-2.875 0,-2.875 1.11087,0 1.11088,0 0.73062,4.0625 c 0.40175,2.23437 0.50738,5.1875 0.23475,6.5625 -0.27275,1.375 -0.53887,2.92187 -0.59149,3.4375 -0.20151,1.97575 -2.24438,0.80442 -3.85913,-2.21276 z m -60.81987,-76.43308 0.83337,-0.83332 0.83338,0.83332 0.83325,0.83334 -1.66663,0 -1.66662,0 0.83325,-0.83334 z m 30.83337,-9.79166 0,-1.875 1.25,0 1.25,0 0,1.875 0,1.875 -1.25,0 -1.25,0 0,-1.875 z m 24.375,0.625 -0.7725,-1.25 1.32375,0 1.32375,0 0,1.25 c 0,0.6875 -0.248,1.25 -0.55125,1.25 -0.30312,0 -0.89888,-0.5625 -1.32375,-1.25 z m 16.64063,-19.60389 1.64062,-0.65653 0.75525,0.75521 0.75512,0.75521 -2.39574,-0.0987 -2.39588,-0.0987 1.64063,-0.65652 z m 9.02762,-17.8113 c -1.37913,-2.70335 -3.07813,-5.2678 -3.77537,-5.69877 l -1.26788,-0.78358 0.0425,-2.11373 0.0425,-2.11373 3.82925,4.6875 3.82938,4.6875 1.6495,0 1.6495,0 2.50237,-3.43521 2.50238,-3.43522 0.94012,0.94015 0.94013,0.94014 -2.557,2.80757 c -1.40638,1.54416 -3.20963,4.07319 -4.00725,5.62007 -0.79763,1.54687 -1.9815,2.8125 -2.63088,2.8125 l -1.18062,0 -2.5075,-4.91519 z m 53.00375,-4.00093 -3.672,-2.52377 3.125,0.87115 c 1.71875,0.47913 3.90038,1.28776 4.848,1.79696 l 1.723,0.92582 -1.176,0.72681 -1.176,0.72681 -3.672,-2.52378 z m -27.54075,-21.28012 -2.38125,-2.69624 3.125,0.80417 c 1.71875,0.4423 5.09375,0.83179 7.5,0.86554 l 4.375,0.0614 -3.125,1.78641 c -1.71875,0.98253 -4.02225,1.80634 -5.11875,1.83071 l -1.99375,0.0443 -2.38125,-2.69624 z m 39.49375,-2.22999 c 0,-0.64693 0.5035,-1.48744 1.119,-1.86782 l 1.119,-0.69159 0.71675,1.86782 0.71675,1.86782 -1.83575,0 -1.83575,0 0,-1.17623 z"
       id="path4262"
       inkscape:connector-curvature="0" />
  </g>
</svg>
